<mxfile host="Electron" modified="2024-11-25T16:58:06.150Z" agent="Mozilla/5.0 (Windows NT 10.0; Win64; x64) AppleWebKit/537.36 (KHTML, like Gecko) draw.io/21.1.2 Chrome/106.0.5249.199 Electron/21.4.3 Safari/537.36" etag="XOmr57BcI0SltjgkNVJL" version="21.1.2" type="device">
  <diagram name="Page-1" id="B8DRJpl-GGg9C0Q8nlwz">
    <mxGraphModel dx="505" dy="237" grid="1" gridSize="10" guides="1" tooltips="1" connect="1" arrows="1" fold="1" page="1" pageScale="1" pageWidth="1700" pageHeight="1100" math="0" shadow="0">
      <root>
        <mxCell id="0" />
        <mxCell id="1" parent="0" />
        <mxCell id="iL5AhyJeSs_xsc2IeSu2-13" style="edgeStyle=orthogonalEdgeStyle;rounded=0;orthogonalLoop=1;jettySize=auto;html=1;entryX=0.5;entryY=0;entryDx=0;entryDy=0;" parent="1" source="iL5AhyJeSs_xsc2IeSu2-1" target="iL5AhyJeSs_xsc2IeSu2-3" edge="1">
          <mxGeometry relative="1" as="geometry" />
        </mxCell>
        <mxCell id="iL5AhyJeSs_xsc2IeSu2-1" value="Start" style="strokeWidth=2;html=1;shape=mxgraph.flowchart.terminator;whiteSpace=wrap;" parent="1" vertex="1">
          <mxGeometry x="165" y="70" width="100" height="60" as="geometry" />
        </mxCell>
        <mxCell id="iL5AhyJeSs_xsc2IeSu2-2" value="Stop" style="strokeWidth=2;html=1;shape=mxgraph.flowchart.terminator;whiteSpace=wrap;" parent="1" vertex="1">
          <mxGeometry x="165" y="670" width="100" height="60" as="geometry" />
        </mxCell>
        <mxCell id="iL5AhyJeSs_xsc2IeSu2-12" style="edgeStyle=orthogonalEdgeStyle;rounded=0;orthogonalLoop=1;jettySize=auto;html=1;" parent="1" source="iL5AhyJeSs_xsc2IeSu2-3" target="iL5AhyJeSs_xsc2IeSu2-4" edge="1">
          <mxGeometry relative="1" as="geometry" />
        </mxCell>
        <mxCell id="iL5AhyJeSs_xsc2IeSu2-3" value="days = 0" style="rounded=0;whiteSpace=wrap;html=1;" parent="1" vertex="1">
          <mxGeometry x="155" y="170" width="120" height="60" as="geometry" />
        </mxCell>
        <mxCell id="iL5AhyJeSs_xsc2IeSu2-11" style="edgeStyle=orthogonalEdgeStyle;rounded=0;orthogonalLoop=1;jettySize=auto;html=1;entryX=0.5;entryY=0;entryDx=0;entryDy=0;" parent="1" source="iL5AhyJeSs_xsc2IeSu2-4" target="iL5AhyJeSs_xsc2IeSu2-5" edge="1">
          <mxGeometry relative="1" as="geometry" />
        </mxCell>
        <mxCell id="iL5AhyJeSs_xsc2IeSu2-4" value="OUTPUT &quot;Enter Value Days: &quot;" style="shape=parallelogram;perimeter=parallelogramPerimeter;whiteSpace=wrap;html=1;fixedSize=1;" parent="1" vertex="1">
          <mxGeometry x="120" y="270" width="190" height="60" as="geometry" />
        </mxCell>
        <mxCell id="iL5AhyJeSs_xsc2IeSu2-10" style="edgeStyle=orthogonalEdgeStyle;rounded=0;orthogonalLoop=1;jettySize=auto;html=1;entryX=0.5;entryY=0;entryDx=0;entryDy=0;" parent="1" source="iL5AhyJeSs_xsc2IeSu2-5" target="iL5AhyJeSs_xsc2IeSu2-6" edge="1">
          <mxGeometry relative="1" as="geometry" />
        </mxCell>
        <mxCell id="iL5AhyJeSs_xsc2IeSu2-5" value="INPUT days" style="shape=parallelogram;perimeter=parallelogramPerimeter;whiteSpace=wrap;html=1;fixedSize=1;" parent="1" vertex="1">
          <mxGeometry x="120" y="370" width="190" height="60" as="geometry" />
        </mxCell>
        <mxCell id="iL5AhyJeSs_xsc2IeSu2-9" style="edgeStyle=orthogonalEdgeStyle;rounded=0;orthogonalLoop=1;jettySize=auto;html=1;entryX=0.5;entryY=0;entryDx=0;entryDy=0;" parent="1" source="iL5AhyJeSs_xsc2IeSu2-6" target="iL5AhyJeSs_xsc2IeSu2-8" edge="1">
          <mxGeometry relative="1" as="geometry" />
        </mxCell>
        <mxCell id="iL5AhyJeSs_xsc2IeSu2-6" value="result = days * 86400" style="rounded=0;whiteSpace=wrap;html=1;" parent="1" vertex="1">
          <mxGeometry x="142.5" y="470" width="145" height="60" as="geometry" />
        </mxCell>
        <mxCell id="iL5AhyJeSs_xsc2IeSu2-14" style="edgeStyle=orthogonalEdgeStyle;rounded=0;orthogonalLoop=1;jettySize=auto;html=1;entryX=0.5;entryY=0;entryDx=0;entryDy=0;entryPerimeter=0;" parent="1" source="iL5AhyJeSs_xsc2IeSu2-8" target="iL5AhyJeSs_xsc2IeSu2-2" edge="1">
          <mxGeometry relative="1" as="geometry" />
        </mxCell>
        <mxCell id="iL5AhyJeSs_xsc2IeSu2-8" value="OUTPUT days &quot;days = &quot; result &quot;seconds&quot;" style="shape=parallelogram;perimeter=parallelogramPerimeter;whiteSpace=wrap;html=1;fixedSize=1;" parent="1" vertex="1">
          <mxGeometry x="82.5" y="570" width="265" height="60" as="geometry" />
        </mxCell>
      </root>
    </mxGraphModel>
  </diagram>
</mxfile>
